<svg id="Camada_1" data-name="Camada 1" xmlns="http://www.w3.org/2000/svg" viewBox="0 0 285.84 120"><defs><style>.cls-1{fill:none;}.cls-10,.cls-2{fill:#13293d;}.cls-3{fill:#385988;}.cls-4{fill:#0193d7;}.cls-5{fill:#718f40;}.cls-6{fill:#6cab36;}.cls-7{fill:#e57b3d;}.cls-8{fill:#ffbb4d;}.cls-9{fill:#b85856;}.cls-10{font-size:33px;font-family:Poppins-Bold, Poppins;font-weight:700;}</style></defs><title>logo-SP</title><path class="cls-1" d="M95,75.76a33.46,33.46,0,0,0,3.67-12.05L79,75.11A53.26,53.26,0,0,0,95,75.76Z" transform="translate(-7.08)"/><path class="cls-1" d="M76,52.75a91.55,91.55,0,0,0-10.27-3.07,94.58,94.58,0,0,0-8.66,6.38,101.68,101.68,0,0,0,1.43,12.19A91.51,91.51,0,0,0,69.56,72.7a94.83,94.83,0,0,0,9-8A103,103,0,0,0,76,52.75ZM68,65l-5.44,4.1,2.08-6.54-5.43-4H66L68,51.9l2.07,6.63h6.72l-5.43,4,2.08,6.59Z" transform="translate(-7.08)"/><path class="cls-1" d="M79.56,90.3,60.86,77.93a58,58,0,0,0,7,15A30.87,30.87,0,0,0,79.56,90.3Z" transform="translate(-7.08)"/><path class="cls-1" d="M50.94,31.67,72.75,43.28a61,61,0,0,0-9.52-16A30.8,30.8,0,0,0,50.94,31.67Z" transform="translate(-7.08)"/><path class="cls-1" d="M48.24,86.46,50,62.76A58.43,58.43,0,0,0,40,77.09,32.91,32.91,0,0,0,48.24,86.46Z" transform="translate(-7.08)"/><path class="cls-1" d="M37.16,49.1a33.81,33.81,0,0,0-1.53,6.7l17.45-8A54.88,54.88,0,0,0,37.16,49.1Z" transform="translate(-7.08)"/><path class="cls-1" d="M84.61,32.5,85,57.29A60.49,60.49,0,0,0,93.7,42,32.68,32.68,0,0,0,84.61,32.5Z" transform="translate(-7.08)"/><path class="cls-2" d="M37.16,49.1a54.88,54.88,0,0,1,15.92-1.32l.08,0-1.4-.06-.61,0c-.57,0-1.13,0-1.68,0h-.59l-1.62,0-.55,0c-.53,0-1.06.05-1.57.1l-.48,0c-.52,0-1,.09-1.53.16l-.39,0c-.52.07-1,.13-1.52.21l-.28.05-1.55.26-.07,0a44.38,44.38,0,0,0-8.4,2.47l-.16.06-.89.38-.23.1-.77.36-.25.13-.66.33-.28.13-.56.3-.26.15-.48.28-.24.14-.41.26a2.25,2.25,0,0,1-.21.12l-.34.22-.18.13-.27.18-.15.11a1.57,1.57,0,0,0-.19.15l-.12.09-.13.09-.1.08-.05,0,0,0-.31-20.81L23.85,55a47.91,47.91,0,0,0-.27,5c0,.45,0,.9,0,1.34l12-5.53A33.26,33.26,0,0,1,37.16,49.1Z" transform="translate(-7.08)"/><path class="cls-2" d="M93.7,42c3.43-9.12,2.79-15.28,2.79-15.28l.15.1a43.15,43.15,0,0,0-12.28-8.27l.25,14A32.59,32.59,0,0,1,93.7,42Z" transform="translate(-7.08)"/><path class="cls-2" d="M63.23,27.33c-5.91-7-11.16-9.48-11.43-9.61A43.22,43.22,0,0,0,39.16,25.4L51,31.67A30.7,30.7,0,0,1,63.23,27.33Z" transform="translate(-7.08)"/><path class="cls-2" d="M40,77.09c-4.1,8.48-4,14.43-4,14.43l-.16-.14a43.75,43.75,0,0,0,11.41,8.78l1-13.7A32.6,32.6,0,0,1,40,77.09Z" transform="translate(-7.08)"/><path class="cls-2" d="M110.58,56.84,98.69,63.71A33.26,33.26,0,0,1,95,75.76C104.5,74.62,109.37,71,109.37,71v.15A46.17,46.17,0,0,0,110.69,60C110.69,58.93,110.64,57.88,110.58,56.84Z" transform="translate(-7.08)"/><path class="cls-2" d="M67.83,92.9c5,7.53,10,10.36,10.65,10.69a42.69,42.69,0,0,0,12.44-5.78L79.55,90.3A30.77,30.77,0,0,1,67.83,92.9Z" transform="translate(-7.08)"/><path class="cls-3" d="M76,52.73c-1.18-.43-2.33-.83-3.47-1.19-2.35-.76-4.59-1.37-6.77-1.88,0,0,0,0,0,0A93.05,93.05,0,0,1,76,52.75Z" transform="translate(-7.08)"/><path class="cls-4" d="M63.23,27.33a61.17,61.17,0,0,1,9.52,16h0l.26.14c.75,1.78,1.45,3.71,2.1,5.81l-.12.12c.35,1.09.69,2.22,1,3.38,0,0,0,0,0,0a101.35,101.35,0,0,1,2.55,12,79.29,79.29,0,0,0,6.49-7.42l-.44-24.79-.24-14L84,0,51.76,17.72h0C52.07,17.85,57.32,20.3,63.23,27.33Z" transform="translate(-7.08)"/><path class="cls-5" d="M93.7,42A60.66,60.66,0,0,1,85,57.3a79.29,79.29,0,0,1-6.49,7.42,93.61,93.61,0,0,1-9,8A71.44,71.44,0,0,0,79,75.12l19.72-11.4,11.89-6.87,16.51-9.55L96.64,26.79l-.15-.1S97.13,32.84,93.7,42Z" transform="translate(-7.08)"/><path class="cls-6" d="M95,75.76A53.33,53.33,0,0,1,79,75.11a71.72,71.72,0,0,1-9.41-2.41,93.34,93.34,0,0,1-11-4.46,80.6,80.6,0,0,0,2.35,9.69L79.56,90.29,90.93,97.8l16.6,11,1.83-37.68v-.15S104.5,74.62,95,75.76Z" transform="translate(-7.08)"/><path class="cls-7" d="M67.83,92.9a57.86,57.86,0,0,1-7-15,76.79,76.79,0,0,1-2.35-9.68,103.76,103.76,0,0,1-1.43-12.19A76.36,76.36,0,0,0,50,62.77L48.24,86.46l-1,13.7L45.81,120l32.75-16.37-.07,0C77.85,103.25,72.86,100.43,67.83,92.9Z" transform="translate(-7.08)"/><path class="cls-8" d="M40,77.09A58.62,58.62,0,0,1,50,62.76a76.36,76.36,0,0,1,7.11-6.71,91.45,91.45,0,0,1,8.66-6.38s0,0,0,0a72.37,72.37,0,0,0-12.61-1.9l-.08,0-17.44,8-12,5.53L7.08,68.93,35.83,91.38l.16.14S35.88,85.57,40,77.09Z" transform="translate(-7.08)"/><polygon class="cls-2" points="69.74 58.53 63.02 58.53 60.95 51.9 58.87 58.53 52.15 58.53 57.59 62.55 55.51 69.13 60.95 65.02 66.38 69.1 64.31 62.55 69.74 58.53"/><path class="cls-9" d="M23.92,54.93l.06,0,0,0,.11-.08.12-.09.12-.09.2-.15.15-.11.26-.18.18-.13.34-.22.21-.12.41-.26.24-.14.49-.28.25-.15.57-.3.27-.13.66-.33.25-.13.77-.36.23-.1.9-.38a.76.76,0,0,1,.16-.06,43.94,43.94,0,0,1,8.4-2.47l.07,0,1.55-.26.27-.05,1.52-.21.39,0,1.53-.16a3.91,3.91,0,0,1,.49,0c.51,0,1-.08,1.56-.1l.55,0c.53,0,1.06,0,1.62,0h.59l1.68,0,.62,0,1.39.06a72.23,72.23,0,0,1,12.61,1.9c2.18.51,4.42,1.13,6.77,1.88,1.13.37,2.29.76,3.47,1.19-.32-1.16-.66-2.29-1-3.38l.12-.12A60.66,60.66,0,0,0,73,43.41l-.25-.14h0L50.94,31.67,39.38,25.4,24.06,17.12v0L23.61,17l.13,17.09Z" transform="translate(-7.08)"/><text class="cls-10" transform="translate(117.86 70.09)">São Paulo</text></svg>